# xmcd
#
# Track frame offsets:
#	150
#	17882
#	32775
#	44839
#	56477
#	72085
#	84942
#	99480
#	112662
#	132140
#	149745
#	168865
#	182237
#
# Disc length: 2602 seconds
#
# Revision: 1
# Processed by: cddbd v1.5.2PL0 Copyright (c) Steve Scherf et al.
# Submitted via: audiograbber 1.83.01
#
DISCID=af0a280d
DTITLE=Abel and Caim - O Barco
DYEAR=1900
DGENRE=Sertanejo
TTITLE0=Cowboy Universitário
TTITLE1=Homenagem a Catullo - Luar do Sertão
TTITLE2=Às Quatro da Madrugada
TTITLE3=Paixão e Dor
TTITLE4=O Barco
TTITLE5=Chegado num Arrasta Pé
TTITLE6=O Ipê e o Prisioneiro (Ipê Florido)
TTITLE7=Galo Índio
TTITLE8=Coisa Mandada
TTITLE9=Casco de Boi
TTITLE10=O Menino e o Cachorro
TTITLE11=Crianças do Brasil
TTITLE12=Espora de Ouro
EXTD=
EXTT0=
EXTT1=
EXTT2=
EXTT3=
EXTT4=
EXTT5=
EXTT6=
EXTT7=
EXTT8=
EXTT9=
EXTT10=
EXTT11=
EXTT12=
PLAYORDER=
